<svg width="150" height="40" viewBox="0 0 150 40" fill="none" xmlns="http://www.w3.org/2000/svg">
  <g>
    <path d="M45 10C45 4.47715 49.4772 0 55 0H140C145.523 0 150 4.47715 150 10V30C150 35.5228 145.523 40 140 40H55C49.4772 40 45 35.5228 45 30V10Z" fill="none"/>
    <path d="M22.5 5C33.8218 5 43 14.1782 43 25.5C43 36.8218 33.8218 46 22.5 46C11.1782 46 2 36.8218 2 25.5C2 14.1782 11.1782 5 22.5 5Z" fill="none" stroke="#FF6B00" stroke-width="3"/>
    <path d="M22.5 10L24.8779 20.1221L35 22.5L24.8779 24.8779L22.5 35L20.1221 24.8779L10 22.5L20.1221 20.1221L22.5 10Z" fill="white" stroke="#FF6B00" stroke-width="2"/>
    <path d="M22.5 15L23.6339 20.3661L29 21.5L23.6339 22.6339L22.5 28L21.3661 22.6339L16 21.5L21.3661 20.3661L22.5 15Z" fill="#FF6B00"/>
    <path d="M30 22.5L35 30L40 22.5" stroke="#FF6B00" stroke-width="2"/>
    <path d="M15 22.5L10 15L5 22.5" stroke="#FF6B00" stroke-width="2"/>
    <path d="M22.5 15V10" stroke="#FF6B00" stroke-width="2"/>
    <path d="M22.5 35V30" stroke="#FF6B00" stroke-width="2"/>
  </g>
  <text x="55" y="20" font-family="Arial" font-size="14" font-weight="bold" fill="#FF6B00">BÚSSOLA</text>
  <text x="55" y="35" font-family="Arial" font-size="14" font-weight="bold" fill="#FFFFFF">EXECUTIVA</text>
</svg>
